# xmcd
#
# Track frame offsets: 
#        150
#        33225
#        57750
#        77325
#        97575
#        111075
#        133050
#        147975
#        174000
#        192600
#        211350
#
# Disc length: 3036 seconds
#
# Revision: 3
# Processed by: cddbd v1.5.2PL0 Copyright (c) Steve Scherf et al.
# Submitted via: ExactAudioCopyFreeDBPlugin 1.0
#
DISCID=890bda0b
DTITLE=Axel Zwingenberger - Champion Jack Dupree - Champ's Housewarmin
DTITLE=g
DYEAR=1988
DGENRE=Blues
TTITLE0=Champs Housewarmning
TTITLE1=When I Was One Year Old
TTITLE2=Mean Mistreater
TTITLE3=Tricks Ain't Walking No More
TTITLE4=Shake, Baby, Shake
TTITLE5=Hungarian Stew
TTITLE6=Shim Sham Shimmy
TTITLE7=No Future
TTITLE8=Come Back, Baby
TTITLE9=Whiskey Head Woman
TTITLE10=When I'm Drinkin'
EXTD=
EXTT0=
EXTT1=
EXTT2=
EXTT3=
EXTT4=
EXTT5=
EXTT6=
EXTT7=
EXTT8=
EXTT9=
EXTT10=
PLAYORDER=
